<svg xmlns="http://www.w3.org/2000/svg" xmlns:xlink="http://www.w3.org/1999/xlink" width="310" viewBox="110 141.9 154.7 90.7" height="182" preserveAspectRatio="xMidYMid meet" version="1.0"><defs><g/><clipPath id="c3786271bf"><rect x="0" width="39" y="0" height="10"/></clipPath></defs><g fill="#000000" fill-opacity="1"><g transform="translate(111.680967, 198.555705)"><g><path d="M 39.53125 -31.390625 L 24.609375 -16.40625 L 41 0 L 27.046875 0 L 14.5 -12.546875 L 14.5 0 L 3.671875 0 L 3.671875 -52.640625 L 14.5 -52.640625 L 14.5 -20.4375 L 25.453125 -31.390625 Z M 39.53125 -31.390625 "/></g></g></g><g fill="#000000" fill-opacity="1"><g transform="translate(145.466659, 198.555705)"><g><path d="M 5.8125 -3.875 C 2.875 -7.082031 1.40625 -11.007812 1.40625 -15.65625 C 1.40625 -20.3125 2.875 -24.25 5.8125 -27.46875 C 8.75 -30.695312 12.484375 -32.3125 17.015625 -32.3125 C 21.171875 -32.3125 24.597656 -31.003906 27.296875 -28.390625 L 27.296875 -31.390625 L 38.125 -31.390625 L 38.125 0 L 27.421875 0 L 27.421875 -3.546875 L 27.296875 -3.546875 C 24.597656 -0.566406 21.171875 0.921875 17.015625 0.921875 C 12.484375 0.921875 8.75 -0.675781 5.8125 -3.875 Z M 15.015625 -20.984375 C 13.609375 -19.597656 12.90625 -17.820312 12.90625 -15.65625 C 12.90625 -13.5 13.578125 -11.738281 14.921875 -10.375 C 16.273438 -9.007812 18.054688 -8.328125 20.265625 -8.328125 C 22.378906 -8.328125 24.117188 -9.019531 25.484375 -10.40625 C 26.859375 -11.789062 27.546875 -13.546875 27.546875 -15.671875 C 27.546875 -17.828125 26.835938 -19.597656 25.421875 -20.984375 C 24.015625 -22.378906 22.296875 -23.078125 20.265625 -23.078125 C 18.179688 -23.078125 16.429688 -22.378906 15.015625 -20.984375 Z M 15.015625 -20.984375 "/></g></g></g><g fill="#000000" fill-opacity="1"><g transform="translate(181.517011, 198.555705)"><g><path d="M 35.984375 -27.5 C 38.921875 -24.300781 40.390625 -20.375 40.390625 -15.71875 C 40.390625 -11.070312 38.921875 -7.132812 35.984375 -3.90625 C 33.046875 -0.6875 29.3125 0.921875 24.78125 0.921875 C 20.625 0.921875 17.195312 -0.382812 14.5 -3 L 14.5 15.90625 L 3.671875 15.90625 L 3.671875 -31.390625 L 14.375 -31.390625 L 14.375 -27.84375 L 14.5 -27.84375 C 17.195312 -30.820312 20.625 -32.3125 24.78125 -32.3125 C 29.3125 -32.3125 33.046875 -30.707031 35.984375 -27.5 Z M 26.78125 -10.40625 C 28.1875 -11.789062 28.890625 -13.5625 28.890625 -15.71875 C 28.890625 -17.882812 28.210938 -19.648438 26.859375 -21.015625 C 25.515625 -22.390625 23.742188 -23.078125 21.546875 -23.078125 C 19.421875 -23.078125 17.675781 -22.378906 16.3125 -20.984375 C 14.945312 -19.597656 14.265625 -17.847656 14.265625 -15.734375 C 14.265625 -13.566406 14.96875 -11.789062 16.375 -10.40625 C 17.78125 -9.019531 19.503906 -8.328125 21.546875 -8.328125 C 23.628906 -8.328125 25.375 -9.019531 26.78125 -10.40625 Z M 26.78125 -10.40625 "/></g></g></g><g fill="#000000" fill-opacity="1"><g transform="translate(217.567362, 198.555705)"><g><path d="M 17.328125 -32.3125 C 19.117188 -32.3125 20.890625 -32.109375 22.640625 -31.703125 C 24.398438 -31.296875 25.707031 -30.890625 26.5625 -30.484375 L 27.84375 -29.859375 L 24.296875 -22.765625 C 21.847656 -24.066406 19.523438 -24.71875 17.328125 -24.71875 C 16.097656 -24.71875 15.226562 -24.585938 14.71875 -24.328125 C 14.207031 -24.066406 13.953125 -23.566406 13.953125 -22.828125 C 13.953125 -22.660156 13.972656 -22.492188 14.015625 -22.328125 C 14.054688 -22.171875 14.132812 -22.019531 14.25 -21.875 C 14.375 -21.738281 14.488281 -21.617188 14.59375 -21.515625 C 14.695312 -21.410156 14.867188 -21.296875 15.109375 -21.171875 C 15.359375 -21.054688 15.550781 -20.96875 15.6875 -20.90625 C 15.832031 -20.84375 16.066406 -20.75 16.390625 -20.625 C 16.722656 -20.5 16.96875 -20.40625 17.125 -20.34375 C 17.289062 -20.289062 17.566406 -20.203125 17.953125 -20.078125 C 18.347656 -19.953125 18.644531 -19.867188 18.84375 -19.828125 C 20.113281 -19.460938 21.21875 -19.054688 22.15625 -18.609375 C 23.09375 -18.160156 24.082031 -17.546875 25.125 -16.765625 C 26.164062 -15.992188 26.96875 -15.015625 27.53125 -13.828125 C 28.101562 -12.648438 28.390625 -11.304688 28.390625 -9.796875 C 28.390625 -2.648438 23.4375 0.921875 13.53125 0.921875 C 11.28125 0.921875 9.144531 0.578125 7.125 -0.109375 C 5.101562 -0.804688 3.644531 -1.503906 2.75 -2.203125 L 1.40625 -3.3125 L 5.8125 -10.703125 C 6.132812 -10.421875 6.5625 -10.085938 7.09375 -9.703125 C 7.625 -9.316406 8.582031 -8.785156 9.96875 -8.109375 C 11.363281 -7.429688 12.570312 -7.09375 13.59375 -7.09375 C 15.832031 -7.09375 16.953125 -7.847656 16.953125 -9.359375 C 16.953125 -10.054688 16.664062 -10.597656 16.09375 -10.984375 C 15.519531 -11.367188 14.550781 -11.804688 13.1875 -12.296875 C 11.820312 -12.785156 10.75 -13.234375 9.96875 -13.640625 C 8.007812 -14.660156 6.457031 -15.8125 5.3125 -17.09375 C 4.175781 -18.382812 3.609375 -20.09375 3.609375 -22.21875 C 3.609375 -25.394531 4.84375 -27.867188 7.3125 -29.640625 C 9.78125 -31.421875 13.117188 -32.3125 17.328125 -32.3125 Z M 17.328125 -32.3125 "/></g></g></g><g fill="#000000" fill-opacity="1"><g transform="translate(241.927163, 198.555705)"><g><path d="M 10.65625 -13.09375 C 12.613281 -13.09375 14.273438 -12.410156 15.640625 -11.046875 C 17.003906 -9.679688 17.6875 -8.019531 17.6875 -6.0625 C 17.6875 -4.144531 17.003906 -2.5 15.640625 -1.125 C 14.273438 0.238281 12.613281 0.921875 10.65625 0.921875 C 8.726562 0.921875 7.082031 0.238281 5.71875 -1.125 C 4.351562 -2.5 3.671875 -4.144531 3.671875 -6.0625 C 3.671875 -8.019531 4.351562 -9.679688 5.71875 -11.046875 C 7.082031 -12.410156 8.726562 -13.09375 10.65625 -13.09375 Z M 10.65625 -13.09375 "/></g></g></g><g fill="#0d0d0d" fill-opacity="1"><g transform="translate(113.525125, 226.753608)"><g><path d="M 1.5 -0.453125 C 1.5 -0.328125 1.457031 -0.21875 1.375 -0.125 C 1.289062 -0.0390625 1.179688 0 1.046875 0 C 0.921875 0 0.816406 -0.0390625 0.734375 -0.125 C 0.648438 -0.21875 0.609375 -0.328125 0.609375 -0.453125 L 0.609375 -4.46875 C 0.609375 -4.59375 0.648438 -4.695312 0.734375 -4.78125 C 0.816406 -4.875 0.921875 -4.921875 1.046875 -4.921875 C 1.179688 -4.921875 1.289062 -4.875 1.375 -4.78125 C 1.457031 -4.695312 1.5 -4.59375 1.5 -4.46875 Z M 1.046875 -5.53125 C 0.867188 -5.53125 0.738281 -5.5625 0.65625 -5.625 C 0.582031 -5.695312 0.546875 -5.800781 0.546875 -5.9375 L 0.546875 -6.09375 C 0.546875 -6.238281 0.585938 -6.34375 0.671875 -6.40625 C 0.753906 -6.46875 0.882812 -6.5 1.0625 -6.5 C 1.226562 -6.5 1.347656 -6.460938 1.421875 -6.390625 C 1.503906 -6.328125 1.546875 -6.226562 1.546875 -6.09375 L 1.546875 -5.9375 C 1.546875 -5.789062 1.503906 -5.6875 1.421875 -5.625 C 1.347656 -5.5625 1.222656 -5.53125 1.046875 -5.53125 Z M 1.046875 -5.53125 "/></g></g></g><g fill="#0d0d0d" fill-opacity="1"><g transform="translate(121.702866, 226.753608)"><g><path d="M 3.140625 -4.984375 C 4.253906 -4.984375 4.8125 -4.3125 4.8125 -2.96875 L 4.8125 -0.453125 C 4.8125 -0.328125 4.769531 -0.21875 4.6875 -0.125 C 4.601562 -0.0390625 4.5 0 4.375 0 C 4.25 0 4.144531 -0.0390625 4.0625 -0.125 C 3.976562 -0.21875 3.9375 -0.328125 3.9375 -0.453125 L 3.9375 -2.96875 C 3.9375 -3.332031 3.851562 -3.625 3.6875 -3.84375 C 3.519531 -4.0625 3.242188 -4.171875 2.859375 -4.171875 C 2.609375 -4.171875 2.382812 -4.113281 2.1875 -4 C 1.988281 -3.894531 1.832031 -3.75 1.71875 -3.5625 C 1.601562 -3.382812 1.546875 -3.1875 1.546875 -2.96875 L 1.546875 -0.453125 C 1.546875 -0.328125 1.503906 -0.21875 1.421875 -0.125 C 1.335938 -0.0390625 1.226562 0 1.09375 0 C 0.96875 0 0.863281 -0.0390625 0.78125 -0.125 C 0.695312 -0.207031 0.65625 -0.316406 0.65625 -0.453125 L 0.65625 -4.421875 C 0.65625 -4.546875 0.695312 -4.648438 0.78125 -4.734375 C 0.863281 -4.828125 0.96875 -4.875 1.09375 -4.875 C 1.226562 -4.875 1.335938 -4.828125 1.421875 -4.734375 C 1.503906 -4.648438 1.546875 -4.546875 1.546875 -4.421875 L 1.546875 -4.09375 C 1.703125 -4.34375 1.925781 -4.550781 2.21875 -4.71875 C 2.507812 -4.894531 2.816406 -4.984375 3.140625 -4.984375 Z M 3.140625 -4.984375 "/></g></g></g><g fill="#0d0d0d" fill-opacity="1"><g transform="translate(133.244656, 226.753608)"><g><path d="M 4.640625 -0.765625 C 4.734375 -0.671875 4.78125 -0.566406 4.78125 -0.453125 C 4.78125 -0.328125 4.726562 -0.222656 4.625 -0.140625 C 4.53125 -0.0546875 4.429688 -0.015625 4.328125 -0.015625 C 4.191406 -0.015625 4.082031 -0.0625 4 -0.15625 L 2.171875 -2.09375 L 1.625 -1.59375 L 1.625 -0.453125 C 1.625 -0.328125 1.578125 -0.21875 1.484375 -0.125 C 1.398438 -0.0390625 1.300781 0 1.1875 0 C 1.050781 0 0.941406 -0.0390625 0.859375 -0.125 C 0.773438 -0.21875 0.734375 -0.328125 0.734375 -0.453125 L 0.734375 -6.4375 C 0.734375 -6.5625 0.773438 -6.664062 0.859375 -6.75 C 0.941406 -6.832031 1.050781 -6.875 1.1875 -6.875 C 1.300781 -6.875 1.398438 -6.832031 1.484375 -6.75 C 1.578125 -6.664062 1.625 -6.5625 1.625 -6.4375 L 1.625 -2.65625 L 3.890625 -4.75 C 3.992188 -4.84375 4.101562 -4.890625 4.21875 -4.890625 C 4.320312 -4.890625 4.414062 -4.84375 4.5 -4.75 C 4.59375 -4.664062 4.640625 -4.570312 4.640625 -4.46875 C 4.640625 -4.34375 4.582031 -4.234375 4.46875 -4.140625 L 2.859375 -2.703125 Z M 4.640625 -0.765625 "/></g></g></g><g fill="#0d0d0d" fill-opacity="1"><g transform="translate(144.470485, 226.753608)"><g/></g></g><g fill="#0d0d0d" fill-opacity="1"><g transform="translate(153.112879, 226.753608)"><g><path d="M 4.28125 -4.921875 C 4.414062 -4.921875 4.523438 -4.875 4.609375 -4.78125 C 4.691406 -4.695312 4.734375 -4.59375 4.734375 -4.46875 L 4.734375 -0.453125 C 4.734375 0.316406 4.519531 0.894531 4.09375 1.28125 C 3.664062 1.664062 3.101562 1.859375 2.40625 1.859375 C 2.164062 1.859375 1.9375 1.835938 1.71875 1.796875 C 1.5 1.753906 1.316406 1.695312 1.171875 1.625 C 0.941406 1.507812 0.828125 1.363281 0.828125 1.1875 C 0.828125 1.15625 0.832031 1.113281 0.84375 1.0625 C 0.882812 0.957031 0.9375 0.878906 1 0.828125 C 1.070312 0.773438 1.148438 0.75 1.234375 0.75 C 1.285156 0.75 1.332031 0.753906 1.375 0.765625 C 1.570312 0.859375 1.742188 0.925781 1.890625 0.96875 C 2.035156 1.019531 2.207031 1.046875 2.40625 1.046875 C 3.363281 1.046875 3.84375 0.554688 3.84375 -0.421875 L 3.84375 -0.609375 C 3.675781 -0.390625 3.460938 -0.21875 3.203125 -0.09375 C 2.941406 0.03125 2.640625 0.09375 2.296875 0.09375 C 1.785156 0.09375 1.382812 -0.0664062 1.09375 -0.390625 C 0.800781 -0.722656 0.65625 -1.15625 0.65625 -1.6875 L 0.65625 -4.46875 C 0.65625 -4.601562 0.695312 -4.710938 0.78125 -4.796875 C 0.863281 -4.878906 0.96875 -4.921875 1.09375 -4.921875 C 1.226562 -4.921875 1.335938 -4.875 1.421875 -4.78125 C 1.503906 -4.695312 1.546875 -4.59375 1.546875 -4.46875 L 1.546875 -1.921875 C 1.546875 -1.515625 1.632812 -1.210938 1.8125 -1.015625 C 1.988281 -0.816406 2.257812 -0.71875 2.625 -0.71875 C 2.976562 -0.71875 3.269531 -0.828125 3.5 -1.046875 C 3.726562 -1.273438 3.84375 -1.566406 3.84375 -1.921875 L 3.84375 -4.46875 C 3.84375 -4.601562 3.882812 -4.710938 3.96875 -4.796875 C 4.050781 -4.878906 4.15625 -4.921875 4.28125 -4.921875 Z M 4.28125 -4.921875 "/></g></g></g><g fill="#0d0d0d" fill-opacity="1"><g transform="translate(164.561743, 226.753608)"><g><path d="M 5.265625 -2.4375 C 5.265625 -1.945312 5.15625 -1.507812 4.9375 -1.125 C 4.726562 -0.75 4.4375 -0.453125 4.0625 -0.234375 C 3.6875 -0.015625 3.269531 0.09375 2.8125 0.09375 C 2.363281 0.09375 1.953125 -0.015625 1.578125 -0.234375 C 1.203125 -0.453125 0.90625 -0.75 0.6875 -1.125 C 0.46875 -1.507812 0.359375 -1.945312 0.359375 -2.4375 C 0.359375 -2.914062 0.46875 -3.347656 0.6875 -3.734375 C 0.90625 -4.128906 1.203125 -4.4375 1.578125 -4.65625 C 1.953125 -4.875 2.363281 -4.984375 2.8125 -4.984375 C 3.269531 -4.984375 3.6875 -4.875 4.0625 -4.65625 C 4.4375 -4.4375 4.726562 -4.128906 4.9375 -3.734375 C 5.15625 -3.347656 5.265625 -2.914062 5.265625 -2.4375 Z M 4.390625 -2.4375 C 4.390625 -2.769531 4.316406 -3.066406 4.171875 -3.328125 C 4.035156 -3.597656 3.847656 -3.804688 3.609375 -3.953125 C 3.367188 -4.097656 3.101562 -4.171875 2.8125 -4.171875 C 2.519531 -4.171875 2.253906 -4.097656 2.015625 -3.953125 C 1.785156 -3.804688 1.597656 -3.597656 1.453125 -3.328125 C 1.316406 -3.066406 1.25 -2.769531 1.25 -2.4375 C 1.25 -2.101562 1.316406 -1.804688 1.453125 -1.546875 C 1.597656 -1.285156 1.785156 -1.082031 2.015625 -0.9375 C 2.253906 -0.789062 2.519531 -0.71875 2.8125 -0.71875 C 3.101562 -0.71875 3.367188 -0.789062 3.609375 -0.9375 C 3.847656 -1.082031 4.035156 -1.285156 4.171875 -1.546875 C 4.316406 -1.804688 4.390625 -2.101562 4.390625 -2.4375 Z M 4.390625 -2.4375 "/></g></g></g><g fill="#0d0d0d" fill-opacity="1"><g transform="translate(176.261518, 226.753608)"><g><path d="M 4.28125 -4.875 C 4.414062 -4.875 4.523438 -4.828125 4.609375 -4.734375 C 4.691406 -4.648438 4.734375 -4.546875 4.734375 -4.421875 L 4.734375 -1.953125 C 4.734375 -1.304688 4.550781 -0.804688 4.1875 -0.453125 C 3.832031 -0.0976562 3.332031 0.078125 2.6875 0.078125 C 2.039062 0.078125 1.539062 -0.0976562 1.1875 -0.453125 C 0.832031 -0.804688 0.65625 -1.304688 0.65625 -1.953125 L 0.65625 -4.421875 C 0.65625 -4.546875 0.695312 -4.648438 0.78125 -4.734375 C 0.863281 -4.828125 0.96875 -4.875 1.09375 -4.875 C 1.226562 -4.875 1.335938 -4.828125 1.421875 -4.734375 C 1.503906 -4.648438 1.546875 -4.546875 1.546875 -4.421875 L 1.546875 -1.953125 C 1.546875 -1.140625 1.925781 -0.734375 2.6875 -0.734375 C 3.0625 -0.734375 3.347656 -0.832031 3.546875 -1.03125 C 3.742188 -1.238281 3.84375 -1.546875 3.84375 -1.953125 L 3.84375 -4.421875 C 3.84375 -4.546875 3.882812 -4.648438 3.96875 -4.734375 C 4.050781 -4.828125 4.15625 -4.875 4.28125 -4.875 Z M 4.28125 -4.875 "/></g></g></g><g fill="#0d0d0d" fill-opacity="1"><g transform="translate(187.719673, 226.753608)"><g><path d="M 3.09375 -4.984375 C 3.25 -4.984375 3.382812 -4.941406 3.5 -4.859375 C 3.625 -4.773438 3.6875 -4.671875 3.6875 -4.546875 C 3.6875 -4.398438 3.644531 -4.285156 3.5625 -4.203125 C 3.488281 -4.128906 3.394531 -4.09375 3.28125 -4.09375 C 3.226562 -4.09375 3.144531 -4.109375 3.03125 -4.140625 C 2.894531 -4.191406 2.789062 -4.21875 2.71875 -4.21875 C 2.53125 -4.21875 2.34375 -4.148438 2.15625 -4.015625 C 1.976562 -3.878906 1.832031 -3.691406 1.71875 -3.453125 C 1.601562 -3.222656 1.546875 -2.96875 1.546875 -2.6875 L 1.546875 -0.453125 C 1.546875 -0.328125 1.503906 -0.21875 1.421875 -0.125 C 1.335938 -0.0390625 1.226562 0 1.09375 0 C 0.96875 0 0.863281 -0.0390625 0.78125 -0.125 C 0.695312 -0.207031 0.65625 -0.316406 0.65625 -0.453125 L 0.65625 -4.421875 C 0.65625 -4.546875 0.695312 -4.648438 0.78125 -4.734375 C 0.863281 -4.828125 0.96875 -4.875 1.09375 -4.875 C 1.226562 -4.875 1.335938 -4.828125 1.421875 -4.734375 C 1.503906 -4.648438 1.546875 -4.546875 1.546875 -4.421875 L 1.546875 -3.953125 C 1.679688 -4.253906 1.882812 -4.5 2.15625 -4.6875 C 2.425781 -4.875 2.738281 -4.972656 3.09375 -4.984375 Z M 3.09375 -4.984375 "/></g></g></g><g fill="#0d0d0d" fill-opacity="1"><g transform="translate(197.625907, 226.753608)"><g/></g></g><g fill="#0d0d0d" fill-opacity="1"><g transform="translate(206.268302, 226.753608)"><g><path d="M 4.375 -4.921875 C 4.5 -4.921875 4.597656 -4.878906 4.671875 -4.796875 C 4.753906 -4.722656 4.796875 -4.632812 4.796875 -4.53125 C 4.796875 -4.46875 4.773438 -4.390625 4.734375 -4.296875 L 2.96875 -0.28125 C 2.925781 -0.195312 2.867188 -0.128906 2.796875 -0.078125 C 2.734375 -0.0351562 2.660156 -0.0078125 2.578125 0 C 2.484375 0.0078125 2.394531 -0.00390625 2.3125 -0.046875 C 2.226562 -0.0976562 2.164062 -0.175781 2.125 -0.28125 L 0.359375 -4.296875 C 0.328125 -4.390625 0.3125 -4.46875 0.3125 -4.53125 C 0.3125 -4.625 0.347656 -4.710938 0.421875 -4.796875 C 0.503906 -4.878906 0.613281 -4.921875 0.75 -4.921875 C 0.84375 -4.921875 0.925781 -4.894531 1 -4.84375 C 1.070312 -4.800781 1.128906 -4.734375 1.171875 -4.640625 L 2.578125 -1.375 L 3.984375 -4.640625 C 4.066406 -4.828125 4.195312 -4.921875 4.375 -4.921875 Z M 4.375 -4.921875 "/></g></g></g><g fill="#0d0d0d" fill-opacity="1"><g transform="translate(217.429083, 226.753608)"><g><path d="M 1.5 -0.453125 C 1.5 -0.328125 1.457031 -0.21875 1.375 -0.125 C 1.289062 -0.0390625 1.179688 0 1.046875 0 C 0.921875 0 0.816406 -0.0390625 0.734375 -0.125 C 0.648438 -0.21875 0.609375 -0.328125 0.609375 -0.453125 L 0.609375 -4.46875 C 0.609375 -4.59375 0.648438 -4.695312 0.734375 -4.78125 C 0.816406 -4.875 0.921875 -4.921875 1.046875 -4.921875 C 1.179688 -4.921875 1.289062 -4.875 1.375 -4.78125 C 1.457031 -4.695312 1.5 -4.59375 1.5 -4.46875 Z M 1.046875 -5.53125 C 0.867188 -5.53125 0.738281 -5.5625 0.65625 -5.625 C 0.582031 -5.695312 0.546875 -5.800781 0.546875 -5.9375 L 0.546875 -6.09375 C 0.546875 -6.238281 0.585938 -6.34375 0.671875 -6.40625 C 0.753906 -6.46875 0.882812 -6.5 1.0625 -6.5 C 1.226562 -6.5 1.347656 -6.460938 1.421875 -6.390625 C 1.503906 -6.328125 1.546875 -6.226562 1.546875 -6.09375 L 1.546875 -5.9375 C 1.546875 -5.789062 1.503906 -5.6875 1.421875 -5.625 C 1.347656 -5.5625 1.222656 -5.53125 1.046875 -5.53125 Z M 1.046875 -5.53125 "/></g></g></g><g fill="#0d0d0d" fill-opacity="1"><g transform="translate(225.606825, 226.753608)"><g><path d="M 0.375 -0.765625 C 0.320312 -0.847656 0.296875 -0.929688 0.296875 -1.015625 C 0.296875 -1.140625 0.363281 -1.242188 0.5 -1.328125 C 0.550781 -1.367188 0.617188 -1.390625 0.703125 -1.390625 C 0.816406 -1.390625 0.921875 -1.34375 1.015625 -1.25 C 1.203125 -1.039062 1.398438 -0.882812 1.609375 -0.78125 C 1.828125 -0.675781 2.082031 -0.625 2.375 -0.625 C 2.613281 -0.625 2.820312 -0.675781 3 -0.78125 C 3.175781 -0.882812 3.265625 -1.050781 3.265625 -1.28125 C 3.265625 -1.488281 3.171875 -1.648438 2.984375 -1.765625 C 2.804688 -1.878906 2.539062 -1.984375 2.1875 -2.078125 C 1.84375 -2.171875 1.554688 -2.265625 1.328125 -2.359375 C 1.097656 -2.460938 0.90625 -2.613281 0.75 -2.8125 C 0.59375 -3.007812 0.515625 -3.265625 0.515625 -3.578125 C 0.515625 -3.859375 0.59375 -4.101562 0.75 -4.3125 C 0.90625 -4.519531 1.113281 -4.679688 1.375 -4.796875 C 1.644531 -4.921875 1.929688 -4.984375 2.234375 -4.984375 C 2.535156 -4.984375 2.832031 -4.925781 3.125 -4.8125 C 3.414062 -4.707031 3.65625 -4.535156 3.84375 -4.296875 C 3.914062 -4.210938 3.953125 -4.125 3.953125 -4.03125 C 3.953125 -3.9375 3.90625 -3.84375 3.8125 -3.75 C 3.75 -3.6875 3.671875 -3.65625 3.578125 -3.65625 C 3.460938 -3.65625 3.375 -3.695312 3.3125 -3.78125 C 3.175781 -3.925781 3.015625 -4.035156 2.828125 -4.109375 C 2.640625 -4.191406 2.429688 -4.234375 2.203125 -4.234375 C 1.960938 -4.234375 1.757812 -4.1875 1.59375 -4.09375 C 1.4375 -4 1.359375 -3.835938 1.359375 -3.609375 C 1.359375 -3.390625 1.453125 -3.226562 1.640625 -3.125 C 1.828125 -3.019531 2.109375 -2.914062 2.484375 -2.8125 C 2.804688 -2.726562 3.078125 -2.632812 3.296875 -2.53125 C 3.515625 -2.4375 3.695312 -2.289062 3.84375 -2.09375 C 4 -1.894531 4.078125 -1.640625 4.078125 -1.328125 C 4.078125 -1.035156 3.988281 -0.78125 3.8125 -0.5625 C 3.644531 -0.351562 3.425781 -0.191406 3.15625 -0.078125 C 2.894531 0.0351562 2.613281 0.09375 2.3125 0.09375 C 1.914062 0.09375 1.550781 0.0234375 1.21875 -0.109375 C 0.882812 -0.242188 0.601562 -0.460938 0.375 -0.765625 Z M 0.375 -0.765625 "/></g></g></g><g fill="#0d0d0d" fill-opacity="1"><g transform="translate(236.107808, 226.753608)"><g><path d="M 1.5 -0.453125 C 1.5 -0.328125 1.457031 -0.21875 1.375 -0.125 C 1.289062 -0.0390625 1.179688 0 1.046875 0 C 0.921875 0 0.816406 -0.0390625 0.734375 -0.125 C 0.648438 -0.21875 0.609375 -0.328125 0.609375 -0.453125 L 0.609375 -4.46875 C 0.609375 -4.59375 0.648438 -4.695312 0.734375 -4.78125 C 0.816406 -4.875 0.921875 -4.921875 1.046875 -4.921875 C 1.179688 -4.921875 1.289062 -4.875 1.375 -4.78125 C 1.457031 -4.695312 1.5 -4.59375 1.5 -4.46875 Z M 1.046875 -5.53125 C 0.867188 -5.53125 0.738281 -5.5625 0.65625 -5.625 C 0.582031 -5.695312 0.546875 -5.800781 0.546875 -5.9375 L 0.546875 -6.09375 C 0.546875 -6.238281 0.585938 -6.34375 0.671875 -6.40625 C 0.753906 -6.46875 0.882812 -6.5 1.0625 -6.5 C 1.226562 -6.5 1.347656 -6.460938 1.421875 -6.390625 C 1.503906 -6.328125 1.546875 -6.226562 1.546875 -6.09375 L 1.546875 -5.9375 C 1.546875 -5.789062 1.503906 -5.6875 1.421875 -5.625 C 1.347656 -5.5625 1.222656 -5.53125 1.046875 -5.53125 Z M 1.046875 -5.53125 "/></g></g></g><g fill="#0d0d0d" fill-opacity="1"><g transform="translate(244.28555, 226.753608)"><g><path d="M 5.265625 -2.4375 C 5.265625 -1.945312 5.15625 -1.507812 4.9375 -1.125 C 4.726562 -0.75 4.4375 -0.453125 4.0625 -0.234375 C 3.6875 -0.015625 3.269531 0.09375 2.8125 0.09375 C 2.363281 0.09375 1.953125 -0.015625 1.578125 -0.234375 C 1.203125 -0.453125 0.90625 -0.75 0.6875 -1.125 C 0.46875 -1.507812 0.359375 -1.945312 0.359375 -2.4375 C 0.359375 -2.914062 0.46875 -3.347656 0.6875 -3.734375 C 0.90625 -4.128906 1.203125 -4.4375 1.578125 -4.65625 C 1.953125 -4.875 2.363281 -4.984375 2.8125 -4.984375 C 3.269531 -4.984375 3.6875 -4.875 4.0625 -4.65625 C 4.4375 -4.4375 4.726562 -4.128906 4.9375 -3.734375 C 5.15625 -3.347656 5.265625 -2.914062 5.265625 -2.4375 Z M 4.390625 -2.4375 C 4.390625 -2.769531 4.316406 -3.066406 4.171875 -3.328125 C 4.035156 -3.597656 3.847656 -3.804688 3.609375 -3.953125 C 3.367188 -4.097656 3.101562 -4.171875 2.8125 -4.171875 C 2.519531 -4.171875 2.253906 -4.097656 2.015625 -3.953125 C 1.785156 -3.804688 1.597656 -3.597656 1.453125 -3.328125 C 1.316406 -3.066406 1.25 -2.769531 1.25 -2.4375 C 1.25 -2.101562 1.316406 -1.804688 1.453125 -1.546875 C 1.597656 -1.285156 1.785156 -1.082031 2.015625 -0.9375 C 2.253906 -0.789062 2.519531 -0.71875 2.8125 -0.71875 C 3.101562 -0.71875 3.367188 -0.789062 3.609375 -0.9375 C 3.847656 -1.082031 4.035156 -1.285156 4.171875 -1.546875 C 4.316406 -1.804688 4.390625 -2.101562 4.390625 -2.4375 Z M 4.390625 -2.4375 "/></g></g></g><g fill="#0d0d0d" fill-opacity="1"><g transform="translate(255.985324, 226.753608)"><g><path d="M 3.140625 -4.984375 C 4.253906 -4.984375 4.8125 -4.3125 4.8125 -2.96875 L 4.8125 -0.453125 C 4.8125 -0.328125 4.769531 -0.21875 4.6875 -0.125 C 4.601562 -0.0390625 4.5 0 4.375 0 C 4.25 0 4.144531 -0.0390625 4.0625 -0.125 C 3.976562 -0.21875 3.9375 -0.328125 3.9375 -0.453125 L 3.9375 -2.96875 C 3.9375 -3.332031 3.851562 -3.625 3.6875 -3.84375 C 3.519531 -4.0625 3.242188 -4.171875 2.859375 -4.171875 C 2.609375 -4.171875 2.382812 -4.113281 2.1875 -4 C 1.988281 -3.894531 1.832031 -3.75 1.71875 -3.5625 C 1.601562 -3.382812 1.546875 -3.1875 1.546875 -2.96875 L 1.546875 -0.453125 C 1.546875 -0.328125 1.503906 -0.21875 1.421875 -0.125 C 1.335938 -0.0390625 1.226562 0 1.09375 0 C 0.96875 0 0.863281 -0.0390625 0.78125 -0.125 C 0.695312 -0.207031 0.65625 -0.316406 0.65625 -0.453125 L 0.65625 -4.421875 C 0.65625 -4.546875 0.695312 -4.648438 0.78125 -4.734375 C 0.863281 -4.828125 0.96875 -4.875 1.09375 -4.875 C 1.226562 -4.875 1.335938 -4.828125 1.421875 -4.734375 C 1.503906 -4.648438 1.546875 -4.546875 1.546875 -4.421875 L 1.546875 -4.09375 C 1.703125 -4.34375 1.925781 -4.550781 2.21875 -4.71875 C 2.507812 -4.894531 2.816406 -4.984375 3.140625 -4.984375 Z M 3.140625 -4.984375 "/></g></g></g><g transform="matrix(1, 0, 0, 1, 168, 145)"><g clip-path="url(#c3786271bf)"><g fill="#0d0d0d" fill-opacity="1"><g transform="translate(1.586658, 7.129607)"><g><path d="M 3.875 -0.765625 L 3.875 0 L 0.65625 0 L 0.65625 -5.328125 L 3.859375 -5.328125 L 3.859375 -4.578125 L 1.421875 -4.578125 L 1.421875 -3.09375 L 3.8125 -3.09375 L 3.8125 -2.3125 L 1.421875 -2.3125 L 1.421875 -0.765625 Z M 3.875 -0.765625 "/></g></g></g><g fill="#0d0d0d" fill-opacity="1"><g transform="translate(6.151426, 7.129607)"><g><path d="M 3.296875 -3.921875 C 3.253906 -4.078125 3.175781 -4.203125 3.0625 -4.296875 C 2.957031 -4.390625 2.828125 -4.460938 2.671875 -4.515625 C 2.523438 -4.566406 2.378906 -4.59375 2.234375 -4.59375 C 2.054688 -4.59375 1.875 -4.5625 1.6875 -4.5 C 1.507812 -4.4375 1.363281 -4.332031 1.25 -4.1875 C 1.207031 -4.132812 1.175781 -4.070312 1.15625 -4 C 1.132812 -3.925781 1.125 -3.851562 1.125 -3.78125 C 1.125 -3.570312 1.179688 -3.414062 1.296875 -3.3125 C 1.421875 -3.21875 1.570312 -3.148438 1.75 -3.109375 C 1.9375 -3.078125 2.128906 -3.050781 2.328125 -3.03125 C 2.503906 -3.007812 2.6875 -2.976562 2.875 -2.9375 C 3.070312 -2.894531 3.253906 -2.832031 3.421875 -2.75 C 3.597656 -2.675781 3.75 -2.566406 3.875 -2.421875 C 4.007812 -2.285156 4.101562 -2.113281 4.15625 -1.90625 C 4.175781 -1.78125 4.1875 -1.664062 4.1875 -1.5625 C 4.1875 -1.300781 4.128906 -1.070312 4.015625 -0.875 C 3.898438 -0.675781 3.75 -0.507812 3.5625 -0.375 C 3.375 -0.238281 3.160156 -0.132812 2.921875 -0.0625 C 2.691406 0.0078125 2.457031 0.046875 2.21875 0.046875 C 2.019531 0.046875 1.8125 0.015625 1.59375 -0.046875 C 1.382812 -0.109375 1.1875 -0.195312 1 -0.3125 C 0.820312 -0.425781 0.671875 -0.570312 0.546875 -0.75 C 0.421875 -0.9375 0.347656 -1.144531 0.328125 -1.375 L 0.3125 -1.53125 L 1.09375 -1.546875 L 1.09375 -1.421875 L 1.09375 -1.453125 C 1.113281 -1.296875 1.179688 -1.160156 1.296875 -1.046875 C 1.421875 -0.929688 1.566406 -0.84375 1.734375 -0.78125 C 1.910156 -0.726562 2.078125 -0.703125 2.234375 -0.703125 C 2.421875 -0.703125 2.601562 -0.734375 2.78125 -0.796875 C 2.96875 -0.867188 3.117188 -0.96875 3.234375 -1.09375 C 3.359375 -1.226562 3.421875 -1.382812 3.421875 -1.5625 C 3.421875 -1.625 3.410156 -1.6875 3.390625 -1.75 C 3.359375 -1.882812 3.285156 -1.984375 3.171875 -2.046875 C 3.054688 -2.117188 2.914062 -2.171875 2.75 -2.203125 C 2.582031 -2.234375 2.410156 -2.253906 2.234375 -2.265625 C 2.023438 -2.285156 1.816406 -2.316406 1.609375 -2.359375 C 1.398438 -2.410156 1.203125 -2.484375 1.015625 -2.578125 C 0.835938 -2.671875 0.6875 -2.800781 0.5625 -2.96875 C 0.445312 -3.132812 0.378906 -3.359375 0.359375 -3.640625 L 0.359375 -3.625 C 0.359375 -3.65625 0.359375 -3.679688 0.359375 -3.703125 C 0.359375 -3.722656 0.359375 -3.742188 0.359375 -3.765625 C 0.359375 -4.085938 0.457031 -4.378906 0.65625 -4.640625 C 0.820312 -4.867188 1.050781 -5.039062 1.34375 -5.15625 C 1.632812 -5.269531 1.9375 -5.328125 2.25 -5.328125 C 2.519531 -5.328125 2.785156 -5.28125 3.046875 -5.1875 C 3.304688 -5.09375 3.523438 -4.941406 3.703125 -4.734375 C 3.890625 -4.535156 4.003906 -4.273438 4.046875 -3.953125 Z M 3.296875 -3.921875 "/></g></g></g><g fill="#0d0d0d" fill-opacity="1"><g transform="translate(10.99536, 7.129607)"><g><path d="M 1.640625 -4.609375 L 0.046875 -4.609375 L 0.046875 -5.328125 L 4 -5.328125 L 4 -4.609375 L 2.40625 -4.609375 L 2.40625 0 L 1.640625 0 Z M 1.640625 -4.609375 "/></g></g></g><g fill="#0d0d0d" fill-opacity="1"><g transform="translate(15.401682, 7.129607)"><g><path d="M 0.75 -0.90625 C 0.894531 -0.90625 1.007812 -0.863281 1.09375 -0.78125 C 1.1875 -0.695312 1.234375 -0.582031 1.234375 -0.4375 C 1.234375 -0.320312 1.1875 -0.21875 1.09375 -0.125 C 1.007812 -0.03125 0.894531 0.015625 0.75 0.015625 C 0.625 0.015625 0.515625 -0.03125 0.421875 -0.125 C 0.335938 -0.21875 0.296875 -0.320312 0.296875 -0.4375 C 0.296875 -0.582031 0.335938 -0.695312 0.421875 -0.78125 C 0.515625 -0.863281 0.625 -0.90625 0.75 -0.90625 Z M 0.75 -0.90625 "/></g></g></g><g fill="#0d0d0d" fill-opacity="1"><g transform="translate(17.333214, 7.129607)"><g/></g></g><g fill="#0d0d0d" fill-opacity="1"><g transform="translate(19.566553, 7.129607)"><g><path d="M 1.46875 -3.921875 L 0.671875 -2.890625 L 0.1875 -3.28125 L 1.609375 -5.28125 L 2.21875 -5.28125 L 2.21875 0 L 1.46875 0 Z M 1.46875 -3.921875 "/></g></g></g><g fill="#0d0d0d" fill-opacity="1"><g transform="translate(22.795845, 7.129607)"><g><path d="M 1.125 0 L 2.4375 -1.84375 C 2.269531 -1.78125 2.082031 -1.75 1.875 -1.75 C 1.75 -1.75 1.617188 -1.757812 1.484375 -1.78125 C 1.359375 -1.8125 1.242188 -1.859375 1.140625 -1.921875 C 0.835938 -2.097656 0.613281 -2.328125 0.46875 -2.609375 C 0.320312 -2.898438 0.25 -3.195312 0.25 -3.5 C 0.25 -3.8125 0.316406 -4.101562 0.453125 -4.375 C 0.597656 -4.65625 0.816406 -4.882812 1.109375 -5.0625 C 1.398438 -5.238281 1.757812 -5.328125 2.1875 -5.328125 C 2.625 -5.328125 2.984375 -5.238281 3.265625 -5.0625 C 3.554688 -4.882812 3.773438 -4.65625 3.921875 -4.375 C 4.066406 -4.101562 4.140625 -3.8125 4.140625 -3.5 C 4.140625 -3.3125 4.109375 -3.125 4.046875 -2.9375 C 3.992188 -2.757812 3.914062 -2.59375 3.8125 -2.4375 L 2.078125 0 Z M 2.1875 -2.4375 C 2.445312 -2.4375 2.664062 -2.488281 2.84375 -2.59375 C 3.019531 -2.695312 3.148438 -2.828125 3.234375 -2.984375 C 3.316406 -3.148438 3.359375 -3.320312 3.359375 -3.5 C 3.359375 -3.6875 3.316406 -3.859375 3.234375 -4.015625 C 3.148438 -4.171875 3.019531 -4.300781 2.84375 -4.40625 C 2.664062 -4.507812 2.445312 -4.5625 2.1875 -4.5625 C 1.925781 -4.5625 1.707031 -4.507812 1.53125 -4.40625 C 1.363281 -4.300781 1.234375 -4.171875 1.140625 -4.015625 C 1.054688 -3.859375 1.015625 -3.6875 1.015625 -3.5 C 1.015625 -3.320312 1.054688 -3.148438 1.140625 -2.984375 C 1.234375 -2.828125 1.363281 -2.695312 1.53125 -2.59375 C 1.707031 -2.488281 1.925781 -2.4375 2.1875 -2.4375 Z M 2.1875 -2.4375 "/></g></g></g><g fill="#0d0d0d" fill-opacity="1"><g transform="translate(27.798234, 7.129607)"><g><path d="M 1.125 0 L 2.4375 -1.84375 C 2.269531 -1.78125 2.082031 -1.75 1.875 -1.75 C 1.75 -1.75 1.617188 -1.757812 1.484375 -1.78125 C 1.359375 -1.8125 1.242188 -1.859375 1.140625 -1.921875 C 0.835938 -2.097656 0.613281 -2.328125 0.46875 -2.609375 C 0.320312 -2.898438 0.25 -3.195312 0.25 -3.5 C 0.25 -3.8125 0.316406 -4.101562 0.453125 -4.375 C 0.597656 -4.65625 0.816406 -4.882812 1.109375 -5.0625 C 1.398438 -5.238281 1.757812 -5.328125 2.1875 -5.328125 C 2.625 -5.328125 2.984375 -5.238281 3.265625 -5.0625 C 3.554688 -4.882812 3.773438 -4.65625 3.921875 -4.375 C 4.066406 -4.101562 4.140625 -3.8125 4.140625 -3.5 C 4.140625 -3.3125 4.109375 -3.125 4.046875 -2.9375 C 3.992188 -2.757812 3.914062 -2.59375 3.8125 -2.4375 L 2.078125 0 Z M 2.1875 -2.4375 C 2.445312 -2.4375 2.664062 -2.488281 2.84375 -2.59375 C 3.019531 -2.695312 3.148438 -2.828125 3.234375 -2.984375 C 3.316406 -3.148438 3.359375 -3.320312 3.359375 -3.5 C 3.359375 -3.6875 3.316406 -3.859375 3.234375 -4.015625 C 3.148438 -4.171875 3.019531 -4.300781 2.84375 -4.40625 C 2.664062 -4.507812 2.445312 -4.5625 2.1875 -4.5625 C 1.925781 -4.5625 1.707031 -4.507812 1.53125 -4.40625 C 1.363281 -4.300781 1.234375 -4.171875 1.140625 -4.015625 C 1.054688 -3.859375 1.015625 -3.6875 1.015625 -3.5 C 1.015625 -3.320312 1.054688 -3.148438 1.140625 -2.984375 C 1.234375 -2.828125 1.363281 -2.695312 1.53125 -2.59375 C 1.707031 -2.488281 1.925781 -2.4375 2.1875 -2.4375 Z M 2.1875 -2.4375 "/></g></g></g><g fill="#0d0d0d" fill-opacity="1"><g transform="translate(32.800622, 7.129607)"><g><path d="M 1 -1.484375 C 1.101562 -1.265625 1.242188 -1.085938 1.421875 -0.953125 C 1.609375 -0.828125 1.832031 -0.765625 2.09375 -0.765625 C 2.351562 -0.765625 2.566406 -0.816406 2.734375 -0.921875 C 2.910156 -1.023438 3.039062 -1.15625 3.125 -1.3125 C 3.21875 -1.476562 3.265625 -1.648438 3.265625 -1.828125 C 3.265625 -2.015625 3.210938 -2.195312 3.109375 -2.375 C 3.003906 -2.550781 2.851562 -2.679688 2.65625 -2.765625 C 2.394531 -2.867188 2.140625 -2.921875 1.890625 -2.921875 C 1.523438 -2.921875 1.160156 -2.8125 0.796875 -2.59375 L 0.359375 -2.796875 L 0.359375 -5.328125 L 3.734375 -5.328125 L 3.734375 -4.59375 L 1.125 -4.59375 L 1.125 -3.515625 C 1.269531 -3.554688 1.414062 -3.585938 1.5625 -3.609375 C 1.707031 -3.640625 1.851562 -3.65625 2 -3.65625 C 2.15625 -3.65625 2.3125 -3.640625 2.46875 -3.609375 C 2.625 -3.578125 2.773438 -3.535156 2.921875 -3.484375 C 3.296875 -3.328125 3.570312 -3.097656 3.75 -2.796875 C 3.9375 -2.492188 4.03125 -2.171875 4.03125 -1.828125 C 4.03125 -1.523438 3.957031 -1.234375 3.8125 -0.953125 C 3.664062 -0.671875 3.445312 -0.441406 3.15625 -0.265625 C 2.875 -0.0859375 2.519531 0 2.09375 0 C 1.207031 0 0.609375 -0.398438 0.296875 -1.203125 Z M 1 -1.484375 "/></g></g></g></g></g></svg>